<?xml version="1.0" encoding="UTF-8"?>
<!-- Uploaded to: SVG Repo, www.svgrepo.com, Generator: SVG Repo Mixer Tools -->
<svg width="466.67" height="466.67" fill="none" version="1.1" viewBox="0 0 14 14" xmlns="http://www.w3.org/2000/svg">
 <path d="m0.29289 0.29289c0.39053-0.39052 1.0237-0.39052 1.4142 0l5.2929 5.2929 5.2929-5.2929c0.3905-0.39052 1.0237-0.39052 1.4142 0 0.3905 0.39053 0.3905 1.0237 0 1.4142l-5.2929 5.2929 5.2929 5.2929c0.3905 0.3905 0.3905 1.0237 0 1.4142s-1.0237 0.3905-1.4142 0l-5.2929-5.2929-5.2929 5.2929c-0.39053 0.3905-1.0237 0.3905-1.4142 0-0.39052-0.3905-0.39052-1.0237 0-1.4142l5.2929-5.2929-5.2929-5.2929c-0.39052-0.39053-0.39052-1.0237 0-1.4142z" clip-rule="evenodd" fill="#0f1729" fill-rule="evenodd"/>
</svg>
