<?xml version="1.0" encoding="UTF-8" standalone="no"?>
<svg
   viewBox="0 0 1011.55 1333.33"
   shape-rendering="geometricPrecision"
   text-rendering="geometricPrecision"
   image-rendering="optimizeQuality"
   fill-rule="evenodd"
   clip-rule="evenodd"
   version="1.1"
   id="svg335"
   sodipodi:docname="drupal-logo.svg"
   inkscape:version="1.2.2 (b0a8486541, 2022-12-01)"
   xmlns:inkscape="http://www.inkscape.org/namespaces/inkscape"
   xmlns:sodipodi="http://sodipodi.sourceforge.net/DTD/sodipodi-0.dtd"
   xmlns="http://www.w3.org/2000/svg"
   xmlns:svg="http://www.w3.org/2000/svg">
  <defs
     id="defs339" />
  <sodipodi:namedview
     id="namedview337"
     pagecolor="#ffffff"
     bordercolor="#666666"
     borderopacity="1.0"
     inkscape:showpageshadow="2"
     inkscape:pageopacity="0.0"
     inkscape:pagecheckerboard="0"
     inkscape:deskcolor="#d1d1d1"
     showgrid="false"
     inkscape:zoom="0.77025195"
     inkscape:cx="403.11485"
     inkscape:cy="667.96325"
     inkscape:window-width="2560"
     inkscape:window-height="1374"
     inkscape:window-x="1050"
     inkscape:window-y="43"
     inkscape:window-maximized="1"
     inkscape:current-layer="svg335" />
  <path
     d="M716.04 281.05C622.35 189.77 533.47 100.89 507.04 0c-26.43 100.89-115.31 189.79-209 281.07C158.71 420.4.17 578.94.17 816.76c-7.21 278.66 216.2 511.68 494.86 516.49 278.66 4.81 511.68-216.2 516.49-494.86v-21.62c2.39-237.83-156.15-396.37-295.48-535.71zM259.61 862.39c-14.41 19.22-28.82 40.84-38.44 62.46-2.41 2.41-4.81 7.21-9.6 7.21l-2.4-.02c-12.01 0-24.03-21.62-24.03-21.62-2.41-4.81-7.21-12-9.6-16.81l-2.41-4.79c-31.24-67.28-4.81-160.95-4.81-160.95 12-45.63 33.63-91.29 60.06-129.72 16.81-24.03 36.04-48.04 55.25-72.07l24.03 24.03 112.91 115.31c4.81 4.81 4.81 12 0 16.81L302.85 814.36l-43.25 48.02zm252.24 331.51c-96.09 0-175.36-79.28-172.97-175.36 0-43.25 16.81-84.07 43.25-115.31 36.04-43.25 81.68-86.48 132.13-144.13 57.65 62.46 96.09 103.29 132.13 151.35 2.41 2.41 4.81 7.21 7.21 12.01 19.22 28.82 31.22 62.46 31.22 98.5 2.39 96.08-76.87 172.96-172.97 172.96zm329.11-278.67c-2.41 7.22-9.6 12.01-16.81 14.41l-2.41.02c-7.21-2.41-12-7.21-16.81-12.01-31.22-45.63-64.85-88.88-103.29-127.32l-45.63-48.04-153.75-158.54c-31.22-28.82-62.46-62.46-91.29-93.69 0-2.4-2.4-2.4-2.4-2.4-4.81-7.21-9.6-14.41-12.01-24.03v-4.81c-4.81-26.43 4.81-52.85 24.03-72.07 28.82-28.82 60.06-60.06 88.88-91.28 31.22 33.63 64.85 67.26 98.5 100.89 67.26 62.46 127.32 132.13 182.57 206.6 45.63 64.85 69.66 139.33 69.66 218.61-4.82 28.82-9.63 62.45-19.23 93.67z"
     fill="#009cde"
     fill-rule="nonzero"
     id="path333"
     style="fill:#ffffff" />
</svg>
